<?xml version="1.0" encoding="utf-8"?>
<!-- Generator: Adobe Illustrator 15.1.0, SVG Export Plug-In . SVG Version: 6.00 Build 0)  -->
<!DOCTYPE svg PUBLIC "-//W3C//DTD SVG 1.1//EN" "http://www.w3.org/Graphics/SVG/1.1/DTD/svg11.dtd">
<svg version="1.1" id="Layer_1" xmlns="http://www.w3.org/2000/svg" xmlns:xlink="http://www.w3.org/1999/xlink" x="0px" y="0px"
	 width="165px" height="40px" viewBox="0 0 165 40" enable-background="new 0 0 165 40" xml:space="preserve">
<g>
	<path fill="#FFFFFF" d="M164.104,35.277c0,2.117-1.713,3.83-3.834,3.83H4.729c-2.119,0-3.839-1.713-3.839-3.83V4.725
		c0-2.115,1.721-3.835,3.839-3.835H160.27c2.121,0,3.834,1.72,3.834,3.835V35.277L164.104,35.277z"/>
	<path fill="#A6A6A6" d="M160.27,40H4.729C2.122,40,0,37.883,0,35.277V4.726C0,2.12,2.122,0,4.729,0H160.27
		c2.604,0,4.729,2.12,4.729,4.726v30.553C165,37.883,162.875,40,160.27,40L160.27,40z"/>
	<path d="M164.104,35.277c0,2.117-1.713,3.83-3.834,3.83H4.729c-2.119,0-3.839-1.713-3.839-3.83V4.725
		c0-2.115,1.721-3.835,3.839-3.835H160.27c2.121,0,3.834,1.72,3.834,3.835V35.277L164.104,35.277z"/>
	<path fill="#FFFFFF" d="M30.497,19.763c-0.03-3.223,2.695-4.792,2.819-4.864c-1.543-2.204-3.935-2.506-4.774-2.529
		c-2.01-0.206-3.958,1.178-4.981,1.178c-1.043,0-2.62-1.157-4.317-1.122c-2.185,0.033-4.23,1.271-5.352,3.195
		c-2.314,3.923-0.588,9.689,1.628,12.859c1.109,1.555,2.405,3.287,4.101,3.226c1.66-0.065,2.279-1.035,4.283-1.035
		c1.984,0,2.566,1.035,4.296,0.996c1.78-0.026,2.903-1.56,3.973-3.127c1.282-1.78,1.796-3.532,1.817-3.623
		C33.948,24.902,30.532,23.627,30.497,19.763z"/>
	<path fill="#FFFFFF" d="M27.229,10.285c0.892-1.094,1.502-2.58,1.333-4.089C27.27,6.251,25.654,7.07,24.724,8.14
		c-0.823,0.941-1.558,2.486-1.368,3.938C24.807,12.184,26.297,11.361,27.229,10.285z"/>
	
		<linearGradient id="SVGID_1_" gradientUnits="userSpaceOnUse" x1="123.793" y1="0.8911" x2="123.793" y2="36.9477" gradientTransform="matrix(1 0 0 -1 0 41)">
		<stop  offset="0" style="stop-color:#1A1A1A;stop-opacity:0.1"/>
		<stop  offset="0.1235" style="stop-color:#212121;stop-opacity:0.1506"/>
		<stop  offset="0.3085" style="stop-color:#353535;stop-opacity:0.2265"/>
		<stop  offset="0.5321" style="stop-color:#575757;stop-opacity:0.3181"/>
		<stop  offset="0.7834" style="stop-color:#858585;stop-opacity:0.4212"/>
		<stop  offset="1" style="stop-color:#B3B3B3;stop-opacity:0.51"/>
	</linearGradient>
	<path fill="url(#SVGID_1_)" d="M160.27,0H82.585l26.323,40h51.361c2.604,0,4.729-2.117,4.729-4.723V4.726
		C165,2.12,162.875,0,160.27,0z"/>
	<g>
		<path fill="#FFFFFF" d="M55.653,31.496h-1.96l-0.262-5.264c-0.125-2.377-0.18-4.146-0.168-5.301h-0.056
			c-0.398,1.48-0.89,3.066-1.475,4.76l-1.96,5.692h-1.531l-1.792-5.6c-0.535-1.693-0.971-3.312-1.307-4.854h-0.038
			c-0.062,1.891-0.137,3.69-0.224,5.396l-0.299,5.17h-1.885l0.84-12.582h2.595l1.811,5.451c0.448,1.344,0.84,2.788,1.176,4.331
			h0.056c0.398-1.604,0.821-3.049,1.269-4.331l1.886-5.451h2.595L55.653,31.496z"/>
		<path fill="#FFFFFF" d="M64.501,31.496H62.69l-0.149-1.045h-0.056c-0.623,0.834-1.506,1.25-2.651,1.25
			c-0.858,0-1.549-0.273-2.072-0.82c-0.473-0.498-0.709-1.113-0.709-1.848c0-1.107,0.463-1.955,1.391-2.539
			c0.927-0.586,2.231-0.871,3.911-0.859v-0.168c0-1.195-0.628-1.791-1.885-1.791c-0.896,0-1.687,0.223-2.371,0.672l-0.411-1.326
			c0.846-0.522,1.885-0.782,3.117-0.782c2.377,0,3.565,1.25,3.565,3.752v3.342C64.371,30.24,64.414,30.961,64.501,31.496z
			 M62.411,28.379v-1.4c-2.228-0.037-3.341,0.572-3.341,1.83c0,0.474,0.13,0.828,0.39,1.064c0.26,0.236,0.588,0.354,0.984,0.354
			c0.445,0,0.857-0.139,1.234-0.42c0.377-0.279,0.609-0.637,0.696-1.072C62.398,28.635,62.411,28.516,62.411,28.379z"/>
		<path fill="#FFFFFF" d="M72.976,22.666l-0.392,1.531c-0.51-0.248-1.095-0.373-1.755-0.373c-0.884,0-1.583,0.295-2.1,0.887
			s-0.774,1.342-0.774,2.25c0,0.957,0.271,1.717,0.812,2.277c0.541,0.559,1.229,0.84,2.062,0.84c0.622,0,1.232-0.125,1.83-0.373
			l0.28,1.512c-0.66,0.311-1.493,0.467-2.501,0.467c-1.381,0-2.482-0.42-3.304-1.26c-0.822-0.84-1.232-1.963-1.232-3.369
			s0.442-2.561,1.326-3.463c0.883-0.902,2.072-1.354,3.565-1.354C71.638,22.238,72.366,22.381,72.976,22.666z"/>
		<path fill="#FFFFFF" d="M87.891,31.496h-2.146l-1.177-3.695H80.48l-1.12,3.695h-2.091l4.051-12.582h2.5L87.891,31.496z
			 M84.213,26.252l-1.062-3.287c-0.112-0.336-0.324-1.125-0.635-2.37h-0.037c-0.125,0.536-0.324,1.325-0.598,2.37l-1.045,3.287
			H84.213z"/>
		<path fill="#FFFFFF" d="M98.287,26.848c0,1.545-0.418,2.764-1.258,3.66c-0.75,0.797-1.682,1.193-2.797,1.193
			c-1.201,0-2.064-0.428-2.59-1.287v4.76h-2.017v-9.768c0-0.969-0.024-1.963-0.076-2.982h1.773l0.112,1.438h0.037
			c0.672-1.081,1.691-1.622,3.062-1.622c1.069,0,1.963,0.422,2.68,1.27C97.93,24.354,98.287,25.467,98.287,26.848z M96.234,26.924
			c0-0.885-0.199-1.611-0.598-2.186c-0.437-0.596-1.021-0.896-1.755-0.896c-0.498,0-0.948,0.164-1.354,0.494
			c-0.404,0.33-0.67,0.763-0.793,1.297c-0.062,0.25-0.094,0.455-0.094,0.617v1.513c0,0.659,0.201,1.217,0.607,1.67
			c0.404,0.455,0.93,0.682,1.576,0.682c0.76,0,1.35-0.293,1.773-0.877C96.023,28.652,96.234,27.881,96.234,26.924z"/>
		<path fill="#FFFFFF" d="M108.723,26.848c0,1.545-0.418,2.764-1.258,3.66c-0.75,0.797-1.682,1.193-2.797,1.193
			c-1.201,0-2.064-0.428-2.59-1.287v4.76h-2.016v-9.768c0-0.969-0.025-1.963-0.076-2.982h1.772l0.113,1.438h0.037
			c0.672-1.081,1.69-1.622,3.062-1.622c1.069,0,1.963,0.422,2.68,1.27C108.365,24.354,108.723,25.467,108.723,26.848z
			 M106.67,26.924c0-0.885-0.199-1.611-0.598-2.186c-0.436-0.596-1.021-0.896-1.754-0.896c-0.498,0-0.949,0.164-1.354,0.494
			s-0.67,0.763-0.793,1.297c-0.062,0.25-0.094,0.455-0.094,0.617v1.513c0,0.659,0.2,1.217,0.606,1.67
			c0.404,0.455,0.93,0.682,1.576,0.682c0.76,0,1.35-0.293,1.773-0.877C106.459,28.652,106.67,27.881,106.67,26.924z"/>
		<path fill="#FFFFFF" d="M120.391,27.969c0,1.07-0.373,1.941-1.117,2.613c-0.819,0.734-1.963,1.102-3.428,1.102
			c-1.354,0-2.438-0.262-3.258-0.785l0.467-1.68c0.883,0.523,1.854,0.785,2.912,0.785c0.758,0,1.35-0.172,1.771-0.514
			c0.424-0.342,0.635-0.801,0.635-1.373c0-0.51-0.174-0.939-0.521-1.287c-0.35-0.348-0.928-0.672-1.735-0.971
			c-2.203-0.822-3.306-2.023-3.306-3.604c0-1.032,0.39-1.878,1.168-2.539c0.777-0.659,1.808-0.989,3.088-0.989
			c1.146,0,2.099,0.199,2.857,0.598l-0.506,1.643c-0.713-0.386-1.518-0.579-2.418-0.579c-0.711,0-1.268,0.175-1.668,0.523
			c-0.336,0.311-0.506,0.691-0.506,1.138c0,0.498,0.193,0.908,0.58,1.232c0.336,0.299,0.945,0.623,1.828,0.971
			c1.084,0.437,1.879,0.945,2.391,1.531C120.135,26.369,120.391,27.098,120.391,27.969z"/>
		<path fill="#FFFFFF" d="M127.072,23.936h-2.221v4.406c0,1.119,0.393,1.68,1.176,1.68c0.361,0,0.66-0.03,0.896-0.094l0.058,1.531
			c-0.398,0.15-0.922,0.225-1.568,0.225c-0.797,0-1.42-0.242-1.867-0.729c-0.447-0.484-0.672-1.301-0.672-2.445v-4.574h-1.326
			v-1.512h1.326v-1.66l1.979-0.599v2.258h2.222L127.072,23.936L127.072,23.936z"/>
		<path fill="#FFFFFF" d="M137.078,26.885c0,1.396-0.398,2.539-1.193,3.436c-0.834,0.923-1.941,1.382-3.324,1.382
			c-1.332,0-2.393-0.441-3.182-1.324c-0.791-0.885-1.186-1.998-1.186-3.342c0-1.406,0.406-2.558,1.223-3.453
			c0.814-0.896,1.914-1.344,3.295-1.344c1.332,0,2.4,0.44,3.211,1.323C136.693,24.422,137.078,25.529,137.078,26.885z
			 M134.988,26.932c0-0.83-0.182-1.545-0.541-2.141c-0.424-0.719-1.027-1.078-1.811-1.078c-0.812,0-1.427,0.359-1.851,1.078
			c-0.361,0.596-0.541,1.322-0.541,2.18c0,0.83,0.18,1.545,0.541,2.141c0.437,0.72,1.047,1.078,1.83,1.078
			c0.771,0,1.375-0.364,1.811-1.098C134.801,28.484,134.988,27.764,134.988,26.932z"/>
		<path fill="#FFFFFF" d="M143.631,24.197c-0.199-0.037-0.41-0.055-0.635-0.055c-0.709,0-1.258,0.268-1.643,0.801
			c-0.336,0.475-0.504,1.072-0.504,1.793v4.76h-2.017v-6.215c0-1.047-0.021-1.998-0.058-2.857h1.754l0.076,1.736h0.056
			c0.213-0.598,0.549-1.076,1.008-1.438c0.449-0.322,0.935-0.484,1.457-0.484c0.188,0,0.354,0.012,0.504,0.037L143.631,24.197
			L143.631,24.197z"/>
		<path fill="#FFFFFF" d="M152.646,26.531c0,0.361-0.025,0.666-0.074,0.914h-6.049c0.024,0.896,0.317,1.58,0.879,2.055
			c0.51,0.422,1.168,0.635,1.979,0.635c0.895,0,1.711-0.145,2.445-0.43l0.316,1.4c-0.857,0.373-1.873,0.559-3.043,0.559
			c-1.406,0-2.511-0.412-3.312-1.24c-0.803-0.828-1.205-1.939-1.205-3.332c0-1.369,0.373-2.508,1.121-3.416
			c0.783-0.971,1.842-1.457,3.174-1.457c1.307,0,2.295,0.486,2.967,1.457C152.379,24.447,152.646,25.398,152.646,26.531z
			 M150.725,26.008c0.012-0.598-0.119-1.113-0.393-1.549c-0.348-0.561-0.883-0.84-1.605-0.84c-0.66,0-1.194,0.273-1.604,0.82
			c-0.336,0.438-0.535,0.959-0.599,1.567L150.725,26.008L150.725,26.008z"/>
	</g>
	<g>
		<g>
			<path fill="#FFFFFF" d="M45.12,13.491c-0.593,0-1.106-0.029-1.533-0.078V6.979c0.553-0.087,1.154-0.136,1.805-0.136
				c2.445,0,3.571,1.203,3.571,3.164C48.963,12.269,47.633,13.491,45.12,13.491z M45.479,7.668c-0.33,0-0.611,0.02-0.844,0.068
				v4.891c0.126,0.02,0.368,0.029,0.708,0.029c1.602,0,2.514-0.912,2.514-2.62C47.856,8.513,47.031,7.668,45.479,7.668z"/>
			<path fill="#FFFFFF" d="M52.473,13.54c-1.378,0-2.271-1.029-2.271-2.426c0-1.456,0.912-2.494,2.349-2.494
				c1.358,0,2.271,0.98,2.271,2.417C54.821,12.511,53.88,13.54,52.473,13.54z M52.512,9.386c-0.757,0-1.242,0.708-1.242,1.698
				c0,0.971,0.495,1.679,1.232,1.679s1.232-0.757,1.232-1.699C53.734,10.104,53.249,9.386,52.512,9.386z"/>
			<path fill="#FFFFFF" d="M62.679,8.717l-1.475,4.716h-0.961l-0.611-2.048c-0.155-0.514-0.281-1.019-0.379-1.523h-0.02
				c-0.077,0.514-0.223,1.029-0.378,1.523l-0.65,2.048h-0.971l-1.388-4.716h1.077l0.534,2.242c0.126,0.534,0.232,1.038,0.32,1.514
				h0.02c0.077-0.397,0.203-0.893,0.388-1.504l0.67-2.251h0.854l0.641,2.203c0.155,0.534,0.281,1.058,0.379,1.553h0.028
				c0.068-0.485,0.175-1,0.32-1.553l0.573-2.203L62.679,8.717L62.679,8.717z"/>
			<path fill="#FFFFFF" d="M68.109,13.433h-1.048v-2.708c0-0.834-0.32-1.252-0.951-1.252c-0.621,0-1.048,0.534-1.048,1.155v2.805
				h-1.048v-3.368c0-0.417-0.01-0.864-0.039-1.349h0.922l0.049,0.728h0.029C65.257,8.94,65.829,8.62,66.47,8.62
				c0.99,0,1.64,0.757,1.64,1.989L68.109,13.433L68.109,13.433z"/>
			<path fill="#FFFFFF" d="M70.999,13.433h-1.048v-6.88h1.048V13.433z"/>
			<path fill="#FFFFFF" d="M74.82,13.54c-1.378,0-2.271-1.029-2.271-2.426c0-1.456,0.912-2.494,2.349-2.494
				c1.358,0,2.271,0.98,2.271,2.417C77.169,12.511,76.228,13.54,74.82,13.54z M74.859,9.386c-0.757,0-1.242,0.708-1.242,1.698
				c0,0.971,0.495,1.679,1.232,1.679c0.737,0,1.232-0.757,1.232-1.699C76.082,10.104,75.597,9.386,74.859,9.386z"/>
			<path fill="#FFFFFF" d="M81.301,13.433l-0.077-0.543h-0.029c-0.32,0.437-0.786,0.65-1.378,0.65c-0.845,0-1.446-0.592-1.446-1.388
				c0-1.164,1.009-1.766,2.756-1.766v-0.087c0-0.621-0.33-0.932-0.98-0.932c-0.465,0-0.873,0.117-1.232,0.35L78.7,9.027
				c0.437-0.272,0.98-0.408,1.62-0.408c1.232,0,1.854,0.65,1.854,1.951v1.737c0,0.476,0.02,0.845,0.068,1.126H81.301z
				 M81.155,11.084c-1.164,0-1.747,0.282-1.747,0.951c0,0.495,0.301,0.737,0.719,0.737c0.533,0,1.028-0.407,1.028-0.96V11.084z"/>
			<path fill="#FFFFFF" d="M87.268,13.433l-0.05-0.757h-0.028c-0.301,0.572-0.807,0.864-1.515,0.864c-1.136,0-1.979-1-1.979-2.407
				c0-1.475,0.873-2.514,2.066-2.514c0.631,0,1.077,0.213,1.33,0.641h0.02V6.553h1.049v5.609c0,0.456,0.01,0.883,0.039,1.271H87.268
				z M87.111,10.658c0-0.66-0.438-1.223-1.106-1.223c-0.776,0-1.252,0.689-1.252,1.659c0,0.951,0.495,1.602,1.231,1.602
				c0.66,0,1.127-0.573,1.127-1.252V10.658z"/>
			<path fill="#FFFFFF" d="M94.812,13.54c-1.379,0-2.271-1.029-2.271-2.426c0-1.456,0.912-2.494,2.35-2.494
				c1.357,0,2.271,0.98,2.271,2.417C97.161,12.511,96.221,13.54,94.812,13.54z M94.852,9.386c-0.756,0-1.242,0.708-1.242,1.698
				c0,0.971,0.496,1.679,1.232,1.679c0.737,0,1.232-0.757,1.232-1.699C96.074,10.104,95.589,9.386,94.852,9.386z"/>
			<path fill="#FFFFFF" d="M102.796,13.433h-1.048v-2.708c0-0.834-0.32-1.252-0.951-1.252c-0.621,0-1.048,0.534-1.048,1.155v2.805
				h-1.048v-3.368c0-0.417-0.01-0.864-0.039-1.349h0.922l0.049,0.728h0.029c0.281-0.504,0.854-0.825,1.494-0.825
				c0.99,0,1.64,0.757,1.64,1.989V13.433L102.796,13.433z"/>
			<path fill="#FFFFFF" d="M109.848,9.503h-1.154v2.29c0,0.583,0.203,0.874,0.611,0.874c0.184,0,0.34-0.02,0.465-0.049l0.029,0.796
				c-0.203,0.078-0.476,0.117-0.814,0.117c-0.825,0-1.32-0.456-1.32-1.65V9.503h-0.688V8.717h0.688V7.853l1.029-0.311v1.174h1.154
				V9.503z"/>
			<path fill="#FFFFFF" d="M115.443,13.433h-1.047v-2.688c0-0.844-0.32-1.271-0.951-1.271c-0.543,0-1.049,0.369-1.049,1.116v2.843
				h-1.047v-6.88h1.047v2.833h0.021c0.33-0.514,0.806-0.767,1.417-0.767c0.999,0,1.609,0.776,1.609,2.009V13.433z"/>
			<path fill="#FFFFFF" d="M120.838,11.327h-3.145c0.02,0.893,0.611,1.397,1.484,1.397c0.467,0,0.893-0.078,1.271-0.223l0.164,0.728
				c-0.446,0.194-0.971,0.291-1.581,0.291c-1.476,0-2.349-0.932-2.349-2.377c0-1.446,0.893-2.533,2.23-2.533
				c1.204,0,1.961,0.893,1.961,2.242C120.877,11.036,120.867,11.201,120.838,11.327z M119.877,10.58
				c0-0.728-0.368-1.242-1.038-1.242c-0.603,0-1.077,0.524-1.146,1.242H119.877z"/>
		</g>
	</g>
</g>
</svg>
