<svg xmlns="http://www.w3.org/2000/svg" viewBox="99.7 167.7 562.5 410.1"><defs><style>.cls-1{opacity:.1;}.cls-2{fill:#fff;}.cls-3{fill:#ffce00;}.cls-4{fill:#62a043;}</style></defs><g><ellipse class="cls-1" cx="409.74" cy="547.81" rx="246.92" ry="26.02"/><path class="cls-4" d="m176.89,413.7c-.06,2.49-.05,4.97.02,7.46-.01-1.65,0-3.31.03-5-.03-.82-.04-1.64-.05-2.46Z"/><path class="cls-2" d="m176.92,421.16c0,.62.02,1.23.03,1.84,0-.16,0-.31,0-.46-.02-.46-.02-.92-.03-1.38Z"/><path class="cls-2" d="m193.55,351.57c-2.9,3.03-5.2,6.6-6.7,10.52-6.2,16.18-10.3,34.3-9.96,51.61.02.82.02,1.64.05,2.46-.04,1.69-.04,3.35-.03,5,.01.46.01.92.03,1.38,0,.16,0,.31,0,.46,1.93,115.12,117.07,147.96,212.64,110.32.77-.3,1.55-.6,2.32-.91l-37.14-87.7c-50.99,19.66-74.52-1.76-76.43-25.14-2.24-27.43,25.31-57.55,73.33-27.14l44.22-79.02,2.55-4.56c-15.91-11.86-34.21-19.65-53.36-23.65-6.13-1.28-12.42-1.47-18.61-.54-2.36.35-4.73.73-7.13,1.15-4.34.79-8.58,1.71-12.82,2.72-3.15.75-6.31,1.56-9.53,2.44-9.29,2.75-17.89,5.5-26.83,9.29-3.78,1.38-7.57,3.09-11.01,4.82-3.78,1.72-7.22,3.78-10.66,5.5-8.6,4.47-16.51,9.29-24.07,14.79-6.54,4.47-12.38,8.94-18.23,14.1-4.36,3.84-8.52,7.88-12.63,12.1h0Z"/><path class="cls-3" d="m336.27,177.79c-.18-3.41-2.98-6.08-6.38-6.06-.13,0-.26,0-.39.01-10.32.68-20.71,1.86-30.88,3.51-1.68.27-3.16,1.19-4.16,2.59-1,1.41-1.39,3.12-1.09,4.82l4.26,24.26c-8.61,1.57-17.22,3.53-25.65,5.84l-6.63-23.71c-.77-2.77-3.31-4.7-6.17-4.68-.6,0-1.19.09-1.77.26-9.96,2.94-19.88,6.39-29.48,10.23-1.59.64-2.83,1.86-3.49,3.44-.67,1.59-.67,3.35-.01,4.94l9.45,22.74c-4.21,1.78-8.4,3.67-12.48,5.62-4.09,1.95-8.19,4.02-12.21,6.16l-11.73-21.65c-1.13-2.08-3.3-3.36-5.67-3.35-1.07,0-2.12.28-3.06.8-9.02,5.04-17.94,10.59-26.5,16.48-1.41.97-2.34,2.43-2.64,4.12-.3,1.71.08,3.42,1.09,4.83l14.26,20.06c-7.11,5.1-14.05,10.57-20.68,16.27l-16.18-18.57c-1.22-1.4-3-2.2-4.86-2.2-1.56,0-3.05.58-4.2,1.61-7.68,6.88-15.13,14.22-22.15,21.8-1.16,1.25-1.75,2.89-1.68,4.6.08,1.73.83,3.32,2.12,4.47l67.4,60.66c1.17,1.06,2.69,1.63,4.26,1.63,1.75,0,3.44-.75,4.65-2.04,5.24-5.59,10.91-11.05,16.86-16.23,5.68-4.94,11.7-9.68,17.88-14.06,7.86-5.57,15.83-10.55,23.7-14.81,3.46-1.87,7-3.67,10.5-5.34,3.51-1.68,7.13-3.29,10.76-4.8,8.26-3.44,17.15-6.51,26.42-9.11,7.29-2.05,14.76-3.75,22.18-5.06,7.79-1.37,15.6-2.35,23.22-2.9,3.5-.26,6.11-3.18,5.92-6.67l-4.76-90.55Z"/><path class="cls-2" d="m566.84,544.92l-61.12-76.84.33,73.09-90.06,4.47-10.73-259.49,99.23-5.18.51,85.96,55.94-83.8,82.72,47.69-71.48,77.57,71.48,69.16-76.83,67.37Z"/></g></svg>