<svg role="img" viewBox="0 0 142.29713 134.97667" xmlns="http://www.w3.org/2000/svg">
    <path fill="#ffffff" d="m 15.152919,135.74001 c -2.847283,-0.63762 -6.8975311,-2.85982 -9.2009271,-5.04815 -8.839005,-8.39745 -7.214154,-22.63799 3.321043,-29.10631 3.5186711,-2.160381 7.1517861,-3.010581 11.9363491,-2.793281 3.328631,0.15118 4.312445,0.38187 7.217763,1.692531 6.046657,2.7278 10.032505,7.79447 11.139098,14.15971 1.60426,9.22785 -4.818154,18.52109 -14.4903,20.96748 -2.472823,0.62544 -7.416947,0.68923 -9.923026,0.12808 z m 51.920358,-0.48006 c -0.092,-0.28305 -0.27563,-2.45994 -0.40816,-4.83753 C 66.088913,120.0841 61.572458,108.2992 54.559669,98.835339 51.067955,94.123229 43.816107,87.265009 38.766296,83.899254 28.638913,77.149234 16.762691,73.109754 5.0745249,72.439584 l -4.76742202,-0.27333 -0.114438,-13.07162 -0.114439,-13.07161 H 3.5117679 c 8.0301121,0 20.8276501,2.39005 29.7338791,5.55307 34.86084,12.38069 59.407887,44.051065 61.191927,78.949246 l 0.26836,5.24924 h -13.73271 c -10.608047,0 -13.770757,-0.11714 -13.899947,-0.51463 z m 47.280173,-5.14631 C 112.97995,103.16892 101.21855,78.117264 80.958854,58.983574 74.787737,53.155444 70.244987,49.620124 63.211117,45.171684 46.061665,34.325882 23.437503,27.496328 4.6582059,27.496328 H 0.52380388 V 14.321789 1.147235 l 4.22567002,0.0044 c 4.726313,0.0044 14.0881991,0.869384 20.1578031,1.861321 23.346474,3.815435 45.33292,13.268237 64.463927,27.715502 5.79843,4.378837 18.140806,16.265796 22.720126,21.881826 18.55064,22.75018 28.46879,48.326516 29.97886,77.307626 l 0.30517,5.85666 h -13.86668 -13.86666 z"/>
</svg>